<?xml version="1.0" encoding="utf-8"?>
<svg xmlns="http://www.w3.org/2000/svg" xmlns:xlink="http://www.w3.org/1999/xlink" style="margin: auto; background: rgb(14, 24, 21); display: block; z-index: 1; position: relative; shape-rendering: crispedges;" preserveAspectRatio="xMidYMid" viewBox="0 0 3000 887">
<g transform="translate(1500,443.5) scale(1,1) translate(-1500,-443.5)"><path d="M-100 428.05C-49.63 467.7 -53.91 475.38 -8.57 475.38S40.23 465.32 82.86 465.32S129.92 416.92 174.29 416.92S224.81 446.38 265.71 446.38S314.96 425.65 357.14 425.65S404.53 414.47 448.57 414.47S500.12 434.22 540 434.22S586.41 444.26 631.43 444.26S683.71 420.85 722.86 420.85S770.47 470.37 814.29 470.37S865.83 449.75 905.71 449.75S952.04 417.69 997.14 417.69S1047.1 457.04 1088.57 457.04S1136.78 456.22 1180 456.22S1227.59 469.17 1271.43 469.17S1321.99 436.97 1362.86 436.97S1411.36 447.49 1454.29 447.49S1504 427.16 1545.71 427.16S1596.63 455.4 1637.14 455.4S1684.96 412.65 1728.57 412.65S1777.31 428.68 1820 428.68S1871.52 433.95 1911.43 433.95S1964.25 439 2002.86 439S2055.18 414.19 2094.29 414.19S2141.06 462.4 2185.71 462.4S2236.68 474.84 2277.14 474.84S2330.22 444.15 2368.57 444.15S2419.03 428.88 2460 428.88S2511.36 472.73 2551.43 472.73S2599.23 431.26 2642.86 431.26S2695.75 426.38 2734.29 426.38S2780.76 417.48 2825.71 417.48S2873.76 437.84 2917.14 437.84S2966.32 464.44 3008.57 464.44S3057.49 419.3 3100 419.3S3151.15 425.6 3191.43 425.6L3100 887 L-100 887 Z" fill="#2e3631" stroke-width="0">
  <animate attributeName="d" dur="20s" repeatCount="indefinite" values="M-100 428.05C-49.63 467.7 -53.91 475.38 -8.57 475.38S40.23 465.32 82.86 465.32S129.92 416.92 174.29 416.92S224.81 446.38 265.71 446.38S314.96 425.65 357.14 425.65S404.53 414.47 448.57 414.47S500.12 434.22 540 434.22S586.41 444.26 631.43 444.26S683.71 420.85 722.86 420.85S770.47 470.37 814.29 470.37S865.83 449.75 905.71 449.75S952.04 417.69 997.14 417.69S1047.1 457.04 1088.57 457.04S1136.78 456.22 1180 456.22S1227.59 469.17 1271.43 469.17S1321.99 436.97 1362.86 436.97S1411.36 447.49 1454.29 447.49S1504 427.16 1545.71 427.16S1596.63 455.4 1637.14 455.4S1684.96 412.65 1728.57 412.65S1777.31 428.68 1820 428.68S1871.52 433.95 1911.43 433.95S1964.25 439 2002.86 439S2055.18 414.19 2094.29 414.19S2141.06 462.4 2185.71 462.4S2236.68 474.84 2277.14 474.84S2330.22 444.15 2368.57 444.15S2419.03 428.88 2460 428.88S2511.36 472.73 2551.43 472.73S2599.23 431.26 2642.86 431.26S2695.75 426.38 2734.29 426.38S2780.76 417.48 2825.71 417.48S2873.76 437.84 2917.14 437.84S2966.32 464.44 3008.57 464.44S3057.49 419.3 3100 419.3S3151.15 425.6 3191.43 425.6L3100 887 L-100 887 Z;M-100 461.92C-53.29 458.91 -53.46 440.39 -8.57 440.39S38.48 446.88 82.86 446.88S128.91 433.86 174.29 433.86S221.9 431.08 265.71 431.08S311.85 409.93 357.14 409.93S402.93 480.19 448.57 480.19S497.92 445.17 540 445.17S588.83 447.83 631.43 447.83S677.17 410.55 722.86 410.55S772.99 416.43 814.29 416.43S860.67 475.79 905.71 475.79S953.23 472.36 997.14 472.36S1044.94 435.36 1088.57 435.36S1135.59 463.32 1180 463.32S1228.91 441.92 1271.43 441.92S1323.04 443.75 1362.86 443.75S1412.16 459.89 1454.29 459.89S1506.82 417.4 1545.71 417.4S1595.98 477.67 1637.14 477.67S1688.91 448.45 1728.57 448.45S1778.38 410.81 1820 410.81S1866.71 459.22 1911.43 459.22S1964.19 461.43 2002.86 461.43S2055.75 437.69 2094.29 437.69S2146.77 411.57 2185.71 411.57S2233.41 479.56 2277.14 479.56S2326.54 422.72 2368.57 422.72S2420.75 465.53 2460 465.53S2513.14 433.23 2551.43 433.23S2599.54 436.22 2642.86 436.22S2691.07 480.92 2734.29 480.92S2786.35 481.79 2825.71 481.79S2874.5 440.83 2917.14 440.83S2965.77 423.72 3008.57 423.72S3059.83 410.26 3100 410.26S3151.33 458.99 3191.43 458.99L3100 887 L-100 887 Z;M-100 428.05C-49.63 467.7 -53.91 475.38 -8.57 475.38S40.23 465.32 82.86 465.32S129.92 416.92 174.29 416.92S224.81 446.38 265.71 446.38S314.96 425.65 357.14 425.65S404.53 414.47 448.57 414.47S500.12 434.22 540 434.22S586.41 444.26 631.43 444.26S683.71 420.85 722.86 420.85S770.47 470.37 814.29 470.37S865.83 449.75 905.71 449.75S952.04 417.69 997.14 417.69S1047.1 457.04 1088.57 457.04S1136.78 456.22 1180 456.22S1227.59 469.17 1271.43 469.17S1321.99 436.97 1362.86 436.97S1411.36 447.49 1454.29 447.49S1504 427.16 1545.71 427.16S1596.63 455.4 1637.14 455.4S1684.96 412.65 1728.57 412.65S1777.31 428.68 1820 428.68S1871.52 433.95 1911.43 433.95S1964.25 439 2002.86 439S2055.18 414.19 2094.29 414.19S2141.06 462.4 2185.71 462.4S2236.68 474.84 2277.14 474.84S2330.22 444.15 2368.57 444.15S2419.03 428.88 2460 428.88S2511.36 472.73 2551.43 472.73S2599.23 431.26 2642.86 431.26S2695.75 426.38 2734.29 426.38S2780.76 417.48 2825.71 417.48S2873.76 437.84 2917.14 437.84S2966.32 464.44 3008.57 464.44S3057.49 419.3 3100 419.3S3151.15 425.6 3191.43 425.6L3100 887 L-100 887 Z"></animate>
  <animateTransform attributeName="transform" type="translate" dur="20s" begin="0s" repeatCount="indefinite" values="0;10;0" calcMode="spline" keySplines="0.3 0 0.7 1;0.3 0 0.7 1"></animateTransform>
</path><path d="M-100 526.77C-47.72 502.8 -49.77 515.42 -3.61 515.42S51.83 530.24 92.77 530.24S144.38 494.66 189.16 494.66S242.62 498.42 285.54 498.42S337.24 479.2 381.93 479.2S430.29 505.51 478.31 505.51S527.13 484.36 574.7 484.36S627.84 484.68 671.08 484.68S725.41 508.9 767.47 508.9S817.78 550.16 863.86 550.16S917.5 538.22 960.24 538.22S1013.44 497.08 1056.63 497.08S1110.34 534.31 1153.01 534.31S1206.96 480.43 1249.4 480.43S1297.76 487.73 1345.78 487.73S1396.19 496.78 1442.17 496.78S1493.24 532.42 1538.55 532.42S1591.11 490.08 1634.94 490.08S1690.37 521.34 1731.33 521.34S1785.32 495.64 1827.71 495.64S1876.55 497.55 1924.1 497.55S1975.68 495.94 2020.48 495.94S2072.3 533.08 2116.87 533.08S2168.14 495.95 2213.25 495.95S2266.86 490.16 2309.64 490.16S2358.15 491.9 2406.02 491.9S2461.29 489.43 2502.41 489.43S2551.57 497.77 2598.8 497.77S2652.84 547.65 2695.18 547.65S2747.36 487.46 2791.57 487.46S2844.13 530.25 2887.95 530.25S2938.18 504.41 2984.34 504.41S3033.02 505.11 3080.72 505.11S3136.24 486.01 3177.11 486.01L3100 887 L-100 887 Z" fill="#375a46" stroke-width="0">
  <animate attributeName="d" dur="16s" repeatCount="indefinite" values="M-100 526.77C-47.72 502.8 -49.77 515.42 -3.61 515.42S51.83 530.24 92.77 530.24S144.38 494.66 189.16 494.66S242.62 498.42 285.54 498.42S337.24 479.2 381.93 479.2S430.29 505.51 478.31 505.51S527.13 484.36 574.7 484.36S627.84 484.68 671.08 484.68S725.41 508.9 767.47 508.9S817.78 550.16 863.86 550.16S917.5 538.22 960.24 538.22S1013.44 497.08 1056.63 497.08S1110.34 534.31 1153.01 534.31S1206.96 480.43 1249.4 480.43S1297.76 487.73 1345.78 487.73S1396.19 496.78 1442.17 496.78S1493.24 532.42 1538.55 532.42S1591.11 490.08 1634.94 490.08S1690.37 521.34 1731.33 521.34S1785.32 495.64 1827.71 495.64S1876.55 497.55 1924.1 497.55S1975.68 495.94 2020.48 495.94S2072.3 533.08 2116.87 533.08S2168.14 495.95 2213.25 495.95S2266.86 490.16 2309.64 490.16S2358.15 491.9 2406.02 491.9S2461.29 489.43 2502.41 489.43S2551.57 497.77 2598.8 497.77S2652.84 547.65 2695.18 547.65S2747.36 487.46 2791.57 487.46S2844.13 530.25 2887.95 530.25S2938.18 504.41 2984.34 504.41S3033.02 505.11 3080.72 505.11S3136.24 486.01 3177.11 486.01L3100 887 L-100 887 Z;M-100 506.83C-49.94 474.89 -51.11 485.53 -3.61 485.53S48.27 482.22 92.77 482.22S147.85 510.57 189.16 510.57S243.58 468.13 285.54 468.13S335.87 536.23 381.93 536.23S436.02 493.97 478.31 493.97S533.29 522 574.7 522S625.01 493.31 671.08 493.31S719.58 551.33 767.47 551.33S815.82 497.12 863.86 497.12S915.28 531.11 960.24 531.11S1014.02 497.7 1056.63 497.7S1111.82 520.63 1153.01 520.63S1201.48 516.48 1249.4 516.48S1301.56 505.25 1345.78 505.25S1398.43 501.3 1442.17 501.3S1491.2 503.18 1538.55 503.18S1591.56 529.95 1634.94 529.95S1688.11 494.04 1731.33 494.04S1786.54 472.42 1827.71 472.42S1877.15 509.45 1924.1 509.45S1978.74 468.79 2020.48 468.79S2072.53 514.86 2116.87 514.86S2168.44 485.68 2213.25 485.68S2264.15 512 2309.64 512S2363.97 477.44 2406.02 477.44S2458.6 523.19 2502.41 523.19S2552.06 490.29 2598.8 490.29S2654.3 508.75 2695.18 508.75S2750.5 483.12 2791.57 483.12S2840.72 519 2887.95 519S2942.45 536.31 2984.34 536.31S3034.12 536.97 3080.72 536.97S3133.88 505.92 3177.11 505.92L3100 887 L-100 887 Z;M-100 526.77C-47.72 502.8 -49.77 515.42 -3.61 515.42S51.83 530.24 92.77 530.24S144.38 494.66 189.16 494.66S242.62 498.42 285.54 498.42S337.24 479.2 381.93 479.2S430.29 505.51 478.31 505.51S527.13 484.36 574.7 484.36S627.84 484.68 671.08 484.68S725.41 508.9 767.47 508.9S817.78 550.16 863.86 550.16S917.5 538.22 960.24 538.22S1013.44 497.08 1056.63 497.08S1110.34 534.31 1153.01 534.31S1206.96 480.43 1249.4 480.43S1297.76 487.73 1345.78 487.73S1396.19 496.78 1442.17 496.78S1493.24 532.42 1538.55 532.42S1591.11 490.08 1634.94 490.08S1690.37 521.34 1731.33 521.34S1785.32 495.64 1827.71 495.64S1876.55 497.55 1924.1 497.55S1975.68 495.94 2020.48 495.94S2072.3 533.08 2116.87 533.08S2168.14 495.95 2213.25 495.95S2266.86 490.16 2309.64 490.16S2358.15 491.9 2406.02 491.9S2461.29 489.43 2502.41 489.43S2551.57 497.77 2598.8 497.77S2652.84 547.65 2695.18 547.65S2747.36 487.46 2791.57 487.46S2844.13 530.25 2887.95 530.25S2938.18 504.41 2984.34 504.41S3033.02 505.11 3080.72 505.11S3136.24 486.01 3177.11 486.01L3100 887 L-100 887 Z"></animate>
  <animateTransform attributeName="transform" type="translate" dur="16s" begin="-3.2s" repeatCount="indefinite" values="0;10;0" calcMode="spline" keySplines="0.3 0 0.7 1;0.3 0 0.7 1"></animateTransform>
</path><path d="M-100 530.13C-48.35 544.22 -41.85 557.71 1.91 557.71S58.94 556.28 103.82 556.28S161.82 559.22 205.73 559.22S257.32 573.64 307.64 573.64S365.68 546.7 409.55 546.7S463.1 614.17 511.46 614.17S563.3 584.35 613.38 584.35S670.95 523.08 715.29 523.08S768.28 562.4 817.2 562.4S870.73 586.54 919.11 586.54S970.66 572.07 1021.02 572.07S1072.55 624.63 1122.93 624.63S1177.44 619.99 1224.84 619.99S1276.38 534.07 1326.75 534.07S1384.32 595.52 1428.66 595.52S1485.76 584.99 1530.57 584.99S1583.19 559.47 1632.48 559.47S1684.74 603.3 1734.39 603.3S1789.59 560.43 1836.31 560.43S1892.23 589.84 1938.22 589.84S1995.24 588.53 2040.13 588.53S2098.5 584.1 2142.04 584.1S2198.79 558.61 2243.95 558.61S2302.19 581.15 2345.86 581.15S2398.94 624.82 2447.77 624.82S2500.48 572.67 2549.68 572.67S2604.09 553.28 2651.59 553.28S2706.91 567.06 2753.5 567.06S2809.47 586.35 2855.41 586.35S2913.56 540.21 2957.32 540.21S3010.73 591.04 3059.24 591.04S3111.18 530.35 3161.15 530.35L3100 887 L-100 887 Z" fill="#3c805d" stroke-width="0">
  <animate attributeName="d" dur="12s" repeatCount="indefinite" values="M-100 530.13C-48.35 544.22 -41.85 557.71 1.91 557.71S58.94 556.28 103.82 556.28S161.82 559.22 205.73 559.22S257.32 573.64 307.64 573.64S365.68 546.7 409.55 546.7S463.1 614.17 511.46 614.17S563.3 584.35 613.38 584.35S670.95 523.08 715.29 523.08S768.28 562.4 817.2 562.4S870.73 586.54 919.11 586.54S970.66 572.07 1021.02 572.07S1072.55 624.63 1122.93 624.63S1177.44 619.99 1224.84 619.99S1276.38 534.07 1326.75 534.07S1384.32 595.52 1428.66 595.52S1485.76 584.99 1530.57 584.99S1583.19 559.47 1632.48 559.47S1684.74 603.3 1734.39 603.3S1789.59 560.43 1836.31 560.43S1892.23 589.84 1938.22 589.84S1995.24 588.53 2040.13 588.53S2098.5 584.1 2142.04 584.1S2198.79 558.61 2243.95 558.61S2302.19 581.15 2345.86 581.15S2398.94 624.82 2447.77 624.82S2500.48 572.67 2549.68 572.67S2604.09 553.28 2651.59 553.28S2706.91 567.06 2753.5 567.06S2809.47 586.35 2855.41 586.35S2913.56 540.21 2957.32 540.21S3010.73 591.04 3059.24 591.04S3111.18 530.35 3161.15 530.35L3100 887 L-100 887 Z;M-100 544.93C-44.85 562.52 -47.62 550.88 1.91 550.88S53.4 534.71 103.82 534.71S160.17 570.17 205.73 570.17S259.79 516.99 307.64 516.99S359.97 575.06 409.55 575.06S466.12 546.67 511.46 546.67S568.41 578.91 613.38 578.91S670.49 531.65 715.29 531.65S769.16 584.65 817.2 584.65S872.25 581.78 919.11 581.78S970.51 583.12 1021.02 583.12S1072.73 621.7 1122.93 621.7S1176.79 539.71 1224.84 539.71S1277.09 533.58 1326.75 533.58S1379.49 605.39 1428.66 605.39S1484.66 575.15 1530.57 575.15S1583.62 574.63 1632.48 574.63S1684.72 602.87 1734.39 602.87S1785.56 575.64 1836.31 575.64S1888.95 548.01 1938.22 548.01S1994.2 618.11 2040.13 618.11S2092.16 540.96 2142.04 540.96S2196.9 581.19 2243.95 581.19S2295.59 515.89 2345.86 515.89S2401.75 598.78 2447.77 598.78S2503.65 584.63 2549.68 584.63S2604.91 624.2 2651.59 624.2S2708.01 598.97 2753.5 598.97S2808.57 611.57 2855.41 611.57S2910.91 522.73 2957.32 522.73S3014.72 524.84 3059.24 524.84S3110.44 554.29 3161.15 554.29L3100 887 L-100 887 Z;M-100 530.13C-48.35 544.22 -41.85 557.71 1.91 557.71S58.94 556.28 103.82 556.28S161.82 559.22 205.73 559.22S257.32 573.64 307.64 573.64S365.68 546.7 409.55 546.7S463.1 614.17 511.46 614.17S563.3 584.35 613.38 584.35S670.95 523.08 715.29 523.08S768.28 562.4 817.2 562.4S870.73 586.54 919.11 586.54S970.66 572.07 1021.02 572.07S1072.55 624.63 1122.93 624.63S1177.44 619.99 1224.84 619.99S1276.38 534.07 1326.75 534.07S1384.32 595.52 1428.66 595.52S1485.76 584.99 1530.57 584.99S1583.19 559.47 1632.48 559.47S1684.74 603.3 1734.39 603.3S1789.59 560.43 1836.31 560.43S1892.23 589.84 1938.22 589.84S1995.24 588.53 2040.13 588.53S2098.5 584.1 2142.04 584.1S2198.79 558.61 2243.95 558.61S2302.19 581.15 2345.86 581.15S2398.94 624.82 2447.77 624.82S2500.48 572.67 2549.68 572.67S2604.09 553.28 2651.59 553.28S2706.91 567.06 2753.5 567.06S2809.47 586.35 2855.41 586.35S2913.56 540.21 2957.32 540.21S3010.73 591.04 3059.24 591.04S3111.18 530.35 3161.15 530.35L3100 887 L-100 887 Z"></animate>
  <animateTransform attributeName="transform" type="translate" dur="12s" begin="-4.8s" repeatCount="indefinite" values="0;10;0" calcMode="spline" keySplines="0.3 0 0.7 1;0.3 0 0.7 1"></animateTransform>
</path><path d="M-100 594.19C-41.26 630.6 -38.53 691.64 8.11 691.64S65.21 603.24 116.22 603.24S171.52 623.15 224.32 623.15S279.92 617.87 332.43 617.87S388.21 628.84 440.54 628.84S498.12 632.02 548.65 632.02S608.28 641.59 656.76 641.59S717.46 572.3 764.86 572.3S819.4 638.49 872.97 638.49S931.64 616.29 981.08 616.29S1037.5 574.85 1089.19 574.85S1148.89 571.25 1197.3 571.25S1251.63 639.23 1305.41 639.23S1359.54 588.07 1413.51 588.07S1470.32 610.66 1521.62 610.66S1581.97 640.41 1629.73 640.41S1689.12 625.94 1737.84 625.94S1795.9 613.34 1845.95 613.34S1905.49 694.83 1954.05 694.83S2009.95 601.03 2062.16 601.03S2123.29 685.2 2170.27 685.2S2226.05 599.8 2278.38 599.8S2334.41 689.66 2386.49 689.66S2444.1 578.72 2494.59 578.72S2553.99 670.33 2602.7 670.33S2659.26 662.32 2710.81 662.32S2768.61 669.92 2818.92 669.92S2875.93 681.07 2927.03 681.07S2981.14 656.04 3035.14 656.04S3090.87 606.51 3143.24 606.51L3100 887 L-100 887 Z" fill="#3ca975" stroke-width="0">
  <animate attributeName="d" dur="8s" repeatCount="indefinite" values="M-100 594.19C-41.26 630.6 -38.53 691.64 8.11 691.64S65.21 603.24 116.22 603.24S171.52 623.15 224.32 623.15S279.92 617.87 332.43 617.87S388.21 628.84 440.54 628.84S498.12 632.02 548.65 632.02S608.28 641.59 656.76 641.59S717.46 572.3 764.86 572.3S819.4 638.49 872.97 638.49S931.64 616.29 981.08 616.29S1037.5 574.85 1089.19 574.85S1148.89 571.25 1197.3 571.25S1251.63 639.23 1305.41 639.23S1359.54 588.07 1413.51 588.07S1470.32 610.66 1521.62 610.66S1581.97 640.41 1629.73 640.41S1689.12 625.94 1737.84 625.94S1795.9 613.34 1845.95 613.34S1905.49 694.83 1954.05 694.83S2009.95 601.03 2062.16 601.03S2123.29 685.2 2170.27 685.2S2226.05 599.8 2278.38 599.8S2334.41 689.66 2386.49 689.66S2444.1 578.72 2494.59 578.72S2553.99 670.33 2602.7 670.33S2659.26 662.32 2710.81 662.32S2768.61 669.92 2818.92 669.92S2875.93 681.07 2927.03 681.07S2981.14 656.04 3035.14 656.04S3090.87 606.51 3143.24 606.51L3100 887 L-100 887 Z;M-100 631.6C-45.04 626.14 -39.94 629.03 8.11 629.03S64.53 621.61 116.22 621.61S177.32 647.46 224.32 647.46S282.52 598.62 332.43 598.62S390.2 690.28 440.54 690.28S499.28 568.2 548.65 568.2S605.54 656.97 656.76 656.97S718 595.64 764.86 595.64S824.66 635.31 872.97 635.31S931.53 582.51 981.08 582.51S1038.66 632.3 1089.19 632.3S1149.67 612.93 1197.3 612.93S1257.2 570.25 1305.41 570.25S1365.69 632.7 1413.51 632.7S1472.78 630.46 1521.62 630.46S1576.19 593.36 1629.73 593.36S1684.87 670.44 1737.84 670.44S1795.17 570.67 1845.95 570.67S1900.82 672.35 1954.05 672.35S2009.77 594.7 2062.16 594.7S2120.42 647.18 2170.27 647.18S2228.72 578.68 2278.38 578.68S2336.01 626.95 2386.49 626.95S2446.1 607.13 2494.59 607.13S2549.37 637.33 2602.7 637.33S2656.91 625.88 2710.81 625.88S2767.83 631.24 2818.92 631.24S2873.76 641.19 2927.03 641.19S2986.06 624.86 3035.14 624.86S3089.63 585.47 3143.24 585.47L3100 887 L-100 887 Z;M-100 594.19C-41.26 630.6 -38.53 691.64 8.11 691.64S65.21 603.24 116.22 603.24S171.52 623.15 224.32 623.15S279.92 617.87 332.43 617.87S388.21 628.84 440.54 628.84S498.12 632.02 548.65 632.02S608.28 641.59 656.76 641.59S717.46 572.3 764.86 572.3S819.4 638.49 872.97 638.49S931.64 616.29 981.08 616.29S1037.5 574.85 1089.19 574.85S1148.89 571.25 1197.3 571.25S1251.63 639.23 1305.41 639.23S1359.54 588.07 1413.51 588.07S1470.32 610.66 1521.62 610.66S1581.97 640.41 1629.73 640.41S1689.12 625.94 1737.84 625.94S1795.9 613.34 1845.95 613.34S1905.49 694.83 1954.05 694.83S2009.95 601.03 2062.16 601.03S2123.29 685.2 2170.27 685.2S2226.05 599.8 2278.38 599.8S2334.41 689.66 2386.49 689.66S2444.1 578.72 2494.59 578.72S2553.99 670.33 2602.7 670.33S2659.26 662.32 2710.81 662.32S2768.61 669.92 2818.92 669.92S2875.93 681.07 2927.03 681.07S2981.14 656.04 3035.14 656.04S3090.87 606.51 3143.24 606.51L3100 887 L-100 887 Z"></animate>
  <animateTransform attributeName="transform" type="translate" dur="8s" begin="-4.8s" repeatCount="indefinite" values="0;10;0" calcMode="spline" keySplines="0.3 0 0.7 1;0.3 0 0.7 1"></animateTransform>
</path><path d="M-100 687.28C-39.04 667.72 -37.45 674.17 15.11 674.17S76.72 728.78 130.22 728.78S189.62 645.15 245.32 645.15S303.84 679.82 360.43 679.82S420.61 697.75 475.54 697.75S536.22 737.5 590.65 737.5S651.14 722.19 705.76 722.19S767.06 652.67 820.86 652.67S882.2 714.87 935.97 714.87S998.25 652.15 1051.08 652.15S1113.56 720.12 1166.19 720.12S1228.61 711.22 1281.29 711.22S1341.68 622.08 1396.4 622.08S1456.41 740.08 1511.51 740.08S1575.2 709.31 1626.62 709.31S1688.46 759.85 1741.73 759.85S1802.01 655.76 1856.83 655.76S1921.39 645.03 1971.94 645.03S2036.32 760.6 2087.05 760.6S2149.62 648.01 2202.16 648.01S2260.23 697.11 2317.27 697.11S2378.53 679.68 2432.37 679.68S2492.86 719.52 2547.48 719.52S2612.24 642.94 2662.59 642.94S2720.88 682.35 2777.7 682.35S2841.09 659.96 2892.81 659.96S2951.06 720.48 3007.91 720.48S3069.72 718.91 3123.02 718.91L3100 887 L-100 887 Z" fill="#31d38f" stroke-width="0">
  <animate attributeName="d" dur="4s" repeatCount="indefinite" values="M-100 687.28C-39.04 667.72 -37.45 674.17 15.11 674.17S76.72 728.78 130.22 728.78S189.62 645.15 245.32 645.15S303.84 679.82 360.43 679.82S420.61 697.75 475.54 697.75S536.22 737.5 590.65 737.5S651.14 722.19 705.76 722.19S767.06 652.67 820.86 652.67S882.2 714.87 935.97 714.87S998.25 652.15 1051.08 652.15S1113.56 720.12 1166.19 720.12S1228.61 711.22 1281.29 711.22S1341.68 622.08 1396.4 622.08S1456.41 740.08 1511.51 740.08S1575.2 709.31 1626.62 709.31S1688.46 759.85 1741.73 759.85S1802.01 655.76 1856.83 655.76S1921.39 645.03 1971.94 645.03S2036.32 760.6 2087.05 760.6S2149.62 648.01 2202.16 648.01S2260.23 697.11 2317.27 697.11S2378.53 679.68 2432.37 679.68S2492.86 719.52 2547.48 719.52S2612.24 642.94 2662.59 642.94S2720.88 682.35 2777.7 682.35S2841.09 659.96 2892.81 659.96S2951.06 720.48 3007.91 720.48S3069.72 718.91 3123.02 718.91L3100 887 L-100 887 Z;M-100 668.56C-36.12 660.97 -36.32 722.25 15.11 722.25S73.11 634.66 130.22 634.66S195.13 692.24 245.32 692.24S307.17 653.6 360.43 653.6S423.95 748.58 475.54 748.58S539.52 688.21 590.65 688.21S648.7 752.35 705.76 752.35S766.16 709.81 820.86 709.81S885.29 717.76 935.97 717.76S996.21 677.96 1051.08 677.96S1114.62 700.8 1166.19 700.8S1230.58 642.57 1281.29 642.57S1340.89 756.32 1396.4 756.32S1454.52 648.73 1511.51 648.73S1571.27 752.23 1626.62 752.23S1686.88 629.01 1741.73 629.01S1803.45 767.01 1856.83 767.01S1920.84 631.91 1971.94 631.91S2033.72 722.01 2087.05 722.01S2148.78 686.22 2202.16 686.22S2261.62 760.55 2317.27 760.55S2381.95 692 2432.37 692S2492.87 622.98 2547.48 622.98S2606.35 675.99 2662.59 675.99S2720.52 725.23 2777.7 725.23S2841.43 743.6 2892.81 743.6S2956.48 759.73 3007.91 759.73S3066.19 635.6 3123.02 635.6L3100 887 L-100 887 Z;M-100 687.28C-39.04 667.72 -37.45 674.17 15.11 674.17S76.72 728.78 130.22 728.78S189.62 645.15 245.32 645.15S303.84 679.82 360.43 679.82S420.61 697.75 475.54 697.75S536.22 737.5 590.65 737.5S651.14 722.19 705.76 722.19S767.06 652.67 820.86 652.67S882.2 714.87 935.97 714.87S998.25 652.15 1051.08 652.15S1113.56 720.12 1166.19 720.12S1228.61 711.22 1281.29 711.22S1341.68 622.08 1396.4 622.08S1456.41 740.08 1511.51 740.08S1575.2 709.31 1626.62 709.31S1688.46 759.85 1741.73 759.85S1802.01 655.76 1856.83 655.76S1921.39 645.03 1971.94 645.03S2036.32 760.6 2087.05 760.6S2149.62 648.01 2202.16 648.01S2260.23 697.11 2317.27 697.11S2378.53 679.68 2432.37 679.68S2492.86 719.52 2547.48 719.52S2612.24 642.94 2662.59 642.94S2720.88 682.35 2777.7 682.35S2841.09 659.96 2892.81 659.96S2951.06 720.48 3007.91 720.48S3069.72 718.91 3123.02 718.91L3100 887 L-100 887 Z"></animate>
  <animateTransform attributeName="transform" type="translate" dur="4s" begin="-3.2s" repeatCount="indefinite" values="0;10;0" calcMode="spline" keySplines="0.3 0 0.7 1;0.3 0 0.7 1"></animateTransform>
</path></g>
</svg>